<svg xmlns="http://www.w3.org/2000/svg" width="6" height="4.238" viewBox="0 0 6 4.238">
  <path id="Path_5842" data-name="Path 5842" d="M1.285,0C1.227.012,1.239.023,1.2.035L1.216.023h0a3.7,3.7,0,0,0-.938.73C.255.776.035.9.035,1.019a6.408,6.408,0,0,0,1.2.95c.278.278,1.112.66,1.112.8,0,.058-.336.255-.428.347a3.524,3.524,0,0,0-.614.429A2.2,2.2,0,0,1,.6,4.077c-.023,0-.6.405-.6.6A2.333,2.333,0,0,0,.428,6a1.225,1.225,0,0,0,.266-.093c.463-.22.718-.417,1.065-.6a6.309,6.309,0,0,0,.614-.336c.127,0,.266-.174.336-.208a7.052,7.052,0,0,0,1.077-.6s.452-.208.452-.417c0-.093-.012-.208-.012-.313,0-.405.012-.707.012-1.135a.434.434,0,0,0-.012-.127,1.762,1.762,0,0,0-.382-.347c-.012,0-.069-.069-.718-.568C2.837.985,2.409.73,2.247.579A3.516,3.516,0,0,0,1.772.243,1,1,0,0,0,1.285,0Z" transform="translate(6) rotate(90)" fill="#6997a1"/>
</svg>
